<svg width="24" height="24" viewBox="0 0 24 24" fill="none" xmlns="http://www.w3.org/2000/svg">
<g clip-path="url(#clip0_17_51)">
<path fill-rule="evenodd" clip-rule="evenodd" d="M9.17634 0C4.11241 0 0 4.11241 0 9.17634C0 14.2403 4.11241 18.3527 9.17634 18.3527C14.2403 18.3527 18.3527 14.2403 18.3527 9.17634C18.3527 4.11241 14.2403 0 9.17634 0ZM9.17634 1.41174C13.4624 1.41174 16.9409 4.89028 16.9409 9.17634C16.9409 13.4624 13.4624 16.9409 9.17634 16.9409C4.89028 16.9409 1.41174 13.4624 1.41174 9.17634C1.41174 4.89028 4.89028 1.41174 9.17634 1.41174Z" fill="currentColor"/>
<path fill-rule="evenodd" clip-rule="evenodd" d="M23.7934 22.794L15.6632 14.6652C15.3879 14.3899 14.9404 14.3899 14.6651 14.6652C14.3898 14.9405 14.3898 15.388 14.6651 15.6633L22.7939 23.7935C23.0706 24.0688 23.5167 24.0688 23.7934 23.7935C24.0687 23.5168 24.0687 23.0707 23.7934 22.794Z" fill="currentColor"/>
</g>
<defs>
<clipPath id="clip0_17_51">
<rect width="24" height="24" fill="currentColor"/>
</clipPath>
</defs>
</svg>
